# xmcd
#
# Track frame offsets: 
#        150
#        4384
#        19369
#        42710
#        59893
#        78596
#        94480
#        106706
#        124454
#        142088
#        162798
#        168220
#        182229
#        199287
#        215841
#        223073
#        245322
#        258420
#        265117
#        280502
#
# Disc length: 3894 seconds
#
# Revision: 0
# Processed by: cddbd v1.5.2PL0 Copyright (c) Steve Scherf et al.
# Submitted via: ExactAudioCopy v0.99pb3
#
DISCID=3c0f3414
DTITLE=Paul Westerberg - Sonic Acoustic
DYEAR=1996
DGENRE=Ambient
TTITLE0=Intro
TTITLE1=Ain't Got Me
TTITLE2=Century
TTITLE3=Valentine
TTITLE4=These Are the Days
TTITLE5=Kiss Me on the Bus
TTITLE6=MammaDaddyDid
TTITLE7=Black Eyed Susan
TTITLE8=Swingin' Party
TTITLE9=Love Untold
TTITLE10=interview segment
TTITLE11=MammaDaddyDid
TTITLE12=interview segment
TTITLE13=Sadly Beautiful
TTITLE14=interview Segment
TTITLE15=Dyslexic Heart
TTITLE16=Love Untold
TTITLE17=interview segment
TTITLE18=Ain't Got Me
TTITLE19=interview segment
EXTD=
EXTT0=
EXTT1=
EXTT2=
EXTT3=
EXTT4=
EXTT5=
EXTT6=
EXTT7=
EXTT8=
EXTT9=
EXTT10=
EXTT11=
EXTT12=
EXTT13=
EXTT14=
EXTT15=
EXTT16=
EXTT17=
EXTT18=
EXTT19=
PLAYORDER=
